<?xml version="1.0" encoding="UTF-8" standalone="no"?>
<!DOCTYPE svg PUBLIC "-//W3C//DTD SVG 1.1//EN"
 "http://www.w3.org/Graphics/SVG/1.1/DTD/svg11.dtd">
<!-- Generated by graphviz version 12.2.1 (20241206.2353)
 -->
<!-- Pages: 1 -->
<svg width="102pt" height="305pt"
 viewBox="0.00 0.00 101.93 305.23" xmlns="http://www.w3.org/2000/svg" xmlns:xlink="http://www.w3.org/1999/xlink">
<g id="graph0" class="graph" transform="scale(1 1) rotate(0) translate(4 301.23)">
<polygon fill="white" stroke="none" points="-4,4 -4,-301.23 97.93,-301.23 97.93,4 -4,4"/>
<!-- 3 -->
<g id="node1" class="node">
<title>3</title>
<polygon fill="#e6e5e6" stroke="black" points="91.31,-58.4 2.63,-58.4 2.63,0 91.31,0 91.31,-58.4"/>
<text text-anchor="middle" x="46.97" y="-41.8" font-family="Times,serif" font-size="14.00">TH1D</text>
<text text-anchor="middle" x="46.97" y="-25" font-family="Times,serif" font-size="14.00">c</text>
<text text-anchor="middle" x="46.97" y="-8.2" font-family="Times,serif" font-size="14.00">(already run)</text>
</g>
<!-- 1 -->
<g id="node2" class="node">
<title>1</title>
<polygon fill="#0f9d58" stroke="black" points="83.87,-112.4 65.42,-130.4 28.52,-130.4 10.06,-112.4 28.52,-94.4 65.42,-94.4 83.87,-112.4"/>
<text text-anchor="middle" x="46.97" y="-108.2" font-family="Times,serif" font-size="14.00">Filter</text>
</g>
<!-- 1&#45;&gt;3 -->
<g id="edge1" class="edge">
<title>1&#45;&gt;3</title>
<path fill="none" stroke="black" d="M46.97,-94.18C46.97,-87.14 46.97,-78.67 46.97,-70.24"/>
<polygon fill="black" stroke="black" points="50.47,-70.41 46.97,-60.41 43.47,-70.41 50.47,-70.41"/>
</g>
<!-- 2 -->
<g id="node3" class="node">
<title>2</title>
<ellipse fill="#4285f4" stroke="black" cx="46.97" cy="-195.82" rx="38.25" ry="29.42"/>
<text text-anchor="middle" x="46.97" y="-200.02" font-family="Times,serif" font-size="14.00">Define</text>
<text text-anchor="middle" x="46.97" y="-183.22" font-family="Times,serif" font-size="14.00">c</text>
</g>
<!-- 2&#45;&gt;1 -->
<g id="edge2" class="edge">
<title>2&#45;&gt;1</title>
<path fill="none" stroke="black" d="M46.97,-166.34C46.97,-158.42 46.97,-149.83 46.97,-141.91"/>
<polygon fill="black" stroke="black" points="50.47,-142.1 46.97,-132.1 43.47,-142.1 50.47,-142.1"/>
</g>
<!-- 0 -->
<g id="node4" class="node">
<title>0</title>
<ellipse fill="#f4b400" stroke="black" cx="46.97" cy="-279.23" rx="46.97" ry="18"/>
<text text-anchor="middle" x="46.97" y="-275.03" font-family="Times,serif" font-size="14.00">TTreeDS</text>
</g>
<!-- 0&#45;&gt;2 -->
<g id="edge3" class="edge">
<title>0&#45;&gt;2</title>
<path fill="none" stroke="black" d="M46.97,-260.97C46.97,-253.91 46.97,-245.42 46.97,-236.96"/>
<polygon fill="black" stroke="black" points="50.47,-237.1 46.97,-227.1 43.47,-237.1 50.47,-237.1"/>
</g>
</g>
</svg>
